<svg xmlns="http://www.w3.org/2000/svg" viewBox="0 0 476 88" role="img" aria-labelledby="title">
  <title id="title">Recite wordmark</title>
  <style>
    .ink { fill: #000000; }
    @media (prefers-color-scheme: dark) {
      .ink { fill: #ffffff; }
    }
  </style>
  <g class="ink">
    <g>
      <circle cx="8" cy="8" r="4"/>
      <circle cx="20" cy="8" r="4"/>
      <circle cx="32" cy="8" r="4"/>
      <circle cx="44" cy="8" r="4"/>
      <circle cx="8" cy="20" r="4"/>
      <circle cx="56" cy="20" r="4"/>
      <circle cx="8" cy="32" r="4"/>
      <circle cx="56" cy="32" r="4"/>
      <circle cx="8" cy="44" r="4"/>
      <circle cx="20" cy="44" r="4"/>
      <circle cx="32" cy="44" r="4"/>
      <circle cx="44" cy="44" r="4"/>
      <circle cx="8" cy="56" r="4"/>
      <circle cx="32" cy="56" r="4"/>
      <circle cx="8" cy="68" r="4"/>
      <circle cx="44" cy="68" r="4"/>
      <circle cx="8" cy="80" r="4"/>
      <circle cx="56" cy="80" r="4"/>
    </g>
    <g transform="translate(84 0)">
      <circle cx="8" cy="8" r="4"/>
      <circle cx="20" cy="8" r="4"/>
      <circle cx="32" cy="8" r="4"/>
      <circle cx="44" cy="8" r="4"/>
      <circle cx="56" cy="8" r="4"/>
      <circle cx="8" cy="20" r="4"/>
      <circle cx="8" cy="32" r="4"/>
      <circle cx="8" cy="44" r="4"/>
      <circle cx="20" cy="44" r="4"/>
      <circle cx="32" cy="44" r="4"/>
      <circle cx="44" cy="44" r="4"/>
      <circle cx="8" cy="56" r="4"/>
      <circle cx="8" cy="68" r="4"/>
      <circle cx="8" cy="80" r="4"/>
      <circle cx="20" cy="80" r="4"/>
      <circle cx="32" cy="80" r="4"/>
      <circle cx="44" cy="80" r="4"/>
      <circle cx="56" cy="80" r="4"/>
    </g>
    <g transform="translate(168 0)">
      <circle cx="20" cy="8" r="4"/>
      <circle cx="32" cy="8" r="4"/>
      <circle cx="44" cy="8" r="4"/>
      <circle cx="56" cy="20" r="4"/>
      <circle cx="8" cy="32" r="4"/>
      <circle cx="8" cy="44" r="4"/>
      <circle cx="8" cy="56" r="4"/>
      <circle cx="56" cy="68" r="4"/>
      <circle cx="20" cy="80" r="4"/>
      <circle cx="32" cy="80" r="4"/>
      <circle cx="44" cy="80" r="4"/>
    </g>
    <g transform="translate(252 0)">
      <circle cx="8" cy="8" r="4"/>
      <circle cx="20" cy="8" r="4"/>
      <circle cx="32" cy="8" r="4"/>
      <circle cx="44" cy="8" r="4"/>
      <circle cx="56" cy="8" r="4"/>
      <circle cx="32" cy="20" r="4"/>
      <circle cx="32" cy="32" r="4"/>
      <circle cx="32" cy="44" r="4"/>
      <circle cx="32" cy="56" r="4"/>
      <circle cx="32" cy="68" r="4"/>
      <circle cx="8" cy="80" r="4"/>
      <circle cx="20" cy="80" r="4"/>
      <circle cx="32" cy="80" r="4"/>
      <circle cx="44" cy="80" r="4"/>
      <circle cx="56" cy="80" r="4"/>
    </g>
    <g transform="translate(336 0)">
      <circle cx="8" cy="8" r="4"/>
      <circle cx="20" cy="8" r="4"/>
      <circle cx="32" cy="8" r="4"/>
      <circle cx="44" cy="8" r="4"/>
      <circle cx="56" cy="8" r="4"/>
      <circle cx="32" cy="20" r="4"/>
      <circle cx="32" cy="32" r="4"/>
      <circle cx="32" cy="44" r="4"/>
      <circle cx="32" cy="56" r="4"/>
      <circle cx="32" cy="68" r="4"/>
      <circle cx="32" cy="80" r="4"/>
    </g>
    <g transform="translate(420 0)">
      <circle cx="8" cy="8" r="4"/>
      <circle cx="20" cy="8" r="4"/>
      <circle cx="32" cy="8" r="4"/>
      <circle cx="44" cy="8" r="4"/>
      <circle cx="56" cy="8" r="4"/>
      <circle cx="8" cy="20" r="4"/>
      <circle cx="8" cy="32" r="4"/>
      <circle cx="8" cy="44" r="4"/>
      <circle cx="20" cy="44" r="4"/>
      <circle cx="32" cy="44" r="4"/>
      <circle cx="44" cy="44" r="4"/>
      <circle cx="8" cy="56" r="4"/>
      <circle cx="8" cy="68" r="4"/>
      <circle cx="8" cy="80" r="4"/>
      <circle cx="20" cy="80" r="4"/>
      <circle cx="32" cy="80" r="4"/>
      <circle cx="44" cy="80" r="4"/>
      <circle cx="56" cy="80" r="4"/>
    </g>
  </g>
</svg>
